<?xml version="1.0" encoding="iso-8859-1"?>
<!-- Generator: Adobe Illustrator 19.0.0, SVG Export Plug-In . SVG Version: 6.00 Build 0)  -->
<svg version="1.1" id="Capa_1" xmlns="http://www.w3.org/2000/svg" xmlns:xlink="http://www.w3.org/1999/xlink" x="0px" y="0px"
	 viewBox="0 0 490 490" style="enable-background:new 0 0 490 490;" xml:space="preserve">
<g>
	<polygon points="334.14,278.496 266.046,278.496 244.999,210.56 223.954,278.496 155.86,278.496 210.953,320.479 189.906,388.43 
		244.999,346.431 300.092,388.43 279.047,320.479 	"/>
</g>
<g>
	<path d="M245,0C109.69,0,0,109.69,0,245s109.69,245,245,245s245-109.69,245-245S380.31,0,245,0z M351.612,122.611v13.241H138.388
		v-13.241H351.612z M138.388,430.866V166.478h213.224v264.388c-31.427,18.098-67.816,28.509-106.612,28.509
		S169.816,448.964,138.388,430.866z M136.141,91.986c-15.649,0-28.378,12.726-28.378,28.375v289.175
		C60.658,370.18,30.625,311.039,30.625,245c0-118.207,96.168-214.375,214.375-214.375S459.375,126.793,459.375,245
		c0,66.039-30.033,125.18-77.138,164.536V120.361c0-15.649-12.729-28.375-28.378-28.375H136.141z"/>
</g>
<g>
</g>
<g>
</g>
<g>
</g>
<g>
</g>
<g>
</g>
<g>
</g>
<g>
</g>
<g>
</g>
<g>
</g>
<g>
</g>
<g>
</g>
<g>
</g>
<g>
</g>
<g>
</g>
<g>
</g>
</svg>
